<svg width="46" height="52" viewBox="0 0 46 52" fill="none" xmlns="http://www.w3.org/2000/svg">
<path d="M39.4833 0C42.3404 0 44.6737 2.3426 44.7222 5.265V52L39.2278 47.06L36.1356 44.148L32.8644 41.054L34.2189 45.864H5.23889C3.86146 45.8607 2.54042 45.307 1.56047 44.3222C0.580518 43.3374 0.0201048 42.0002 0 40.599L0 5.356C0 2.4232 2.30256 0.0494 5.14944 0H39.4833ZM18.7067 12.428L18.4511 12.116H18.3054C17.6078 12.1394 14.5079 12.376 11.27 14.846L11.1473 15.0852C10.5059 16.3592 7.59 22.5524 7.59 30.004L7.64111 30.0898C8.004 30.654 10.2452 33.7896 15.3844 33.956L16.1383 33.0174L17.0967 31.798C14.1169 30.8906 12.8391 29.0654 12.65 28.7716L12.6244 28.73L12.7292 28.8002C12.8442 28.8782 13.0538 29.0082 13.34 29.172C13.3656 29.198 13.3911 29.224 13.4422 29.25C13.5189 29.302 13.5956 29.328 13.6722 29.38C14.3111 29.744 14.95 30.03 15.5378 30.264C16.5856 30.68 17.8378 31.096 19.2944 31.382C21.1574 31.7356 23.3322 31.8682 25.7038 31.447L25.9133 31.408C27.1144 31.2 28.3411 30.836 29.6189 30.29C30.5133 29.952 31.51 29.458 32.5578 28.756L32.5169 28.821C32.2716 29.185 30.9324 30.9868 27.9322 31.85L28.3539 32.3882C29.0004 33.2046 29.6189 33.956 29.6189 33.956C35.2667 33.774 37.4389 30.004 37.4389 30.004C37.4389 21.632 33.7589 14.846 33.7589 14.846C30.5951 12.4306 27.5617 12.1498 26.7746 12.1186L26.5778 12.116L26.22 12.532C30.0738 13.7306 32.0978 15.3998 32.5067 15.7638L32.5833 15.834C28.6674 13.6368 24.1605 12.7799 19.7289 13.39C19.5756 13.39 19.4478 13.416 19.2944 13.442L19.1513 13.455C18.1802 13.5564 16.0923 13.9204 13.4933 15.08L13.1228 15.2568C12.6577 15.4804 12.3203 15.6546 12.1389 15.7508L11.9856 15.834C11.9856 15.834 14.0632 13.8216 18.5687 12.4696L18.7067 12.428ZM17.7356 21.814C19.1922 21.814 20.3678 23.114 20.3422 24.7C20.3422 26.286 19.1922 27.586 17.7356 27.586C16.3044 27.586 15.1289 26.286 15.1289 24.7C15.1289 23.114 16.2789 21.814 17.7356 21.814ZM27.0633 21.814C28.52 21.814 29.67 23.114 29.67 24.7C29.67 26.286 28.52 27.586 27.0633 27.586C25.6322 27.586 24.4567 26.286 24.4567 24.7C24.4567 23.114 25.6067 21.814 27.0633 21.814Z" fill="white"/>
</svg>
