<svg width="17" height="17" viewBox="0 0 17 17" fill="none" xmlns="http://www.w3.org/2000/svg">
<path d="M6.94582 0.540895C7.23682 -0.10484 8.13307 -0.136277 8.48434 0.444034L8.53514 0.540895L9.43225 2.53333C10.2156 4.27249 11.5183 5.73419 13.1662 6.72296L13.4434 6.88354L15.0362 7.76718C15.1628 7.83713 15.2697 7.93725 15.347 8.0584C15.4244 8.17955 15.4698 8.31789 15.4792 8.4608C15.4885 8.60371 15.4614 8.74666 15.4004 8.8766C15.3395 9.00655 15.2465 9.11937 15.13 9.20479L15.037 9.26426L13.4434 10.1479C11.7623 11.0811 10.41 12.4987 9.56742 14.2109L9.43225 14.4981L8.53514 16.4905C8.24414 17.1363 7.34789 17.1677 6.99662 16.5874L6.94582 16.4905L6.04871 14.4981C5.26536 12.7589 3.96265 11.2972 2.31477 10.3085L2.03755 10.1479L0.444788 9.26426C0.318167 9.1943 0.211299 9.09419 0.133924 8.97304C0.0565494 8.85188 0.0111279 8.71355 0.00179894 8.57064C-0.00753 8.42772 0.0195303 8.28478 0.0805139 8.15483C0.141498 8.02488 0.234465 7.91206 0.350944 7.82665L0.443927 7.76718L2.03755 6.88354C3.71865 5.95032 5.07094 4.53278 5.91354 2.82051L6.04871 2.53333L6.94582 0.540895V0.540895ZM14.8184 0.122017C15.2457 1.08008 15.9745 1.87677 16.8967 2.39398C17.0344 2.47045 17.0344 2.66587 16.8967 2.74234C15.974 3.25963 15.2449 4.05665 14.8175 5.01516C14.8011 5.05124 14.7746 5.08188 14.7409 5.10338C14.7073 5.12488 14.6681 5.13632 14.6281 5.13632C14.588 5.13632 14.5488 5.12488 14.5152 5.10338C14.4816 5.08188 14.455 5.05124 14.4387 5.01516C14.0111 4.05696 13.282 3.26026 12.3595 2.74319C12.3283 2.72566 12.3025 2.70032 12.2844 2.66973C12.2664 2.63914 12.257 2.60439 12.257 2.56901C12.257 2.53363 12.2664 2.49889 12.2844 2.4683C12.3025 2.43771 12.3283 2.41236 12.3595 2.39483C13.2823 1.87732 14.0114 1.07999 14.4387 0.121167C14.455 0.0850834 14.4816 0.0544421 14.5152 0.0329414C14.5488 0.0114408 14.588 0 14.6281 0C14.6681 0 14.7073 0.0114408 14.7409 0.0329414C14.7746 0.0544421 14.8011 0.0850834 14.8175 0.121167L14.8184 0.122017Z" fill="white"/>
</svg>
