<svg width="62" height="62" viewBox="0 0 62 62" fill="none" xmlns="http://www.w3.org/2000/svg">
<path d="M31.0003 5.16699C16.7403 5.16699 5.16699 16.7403 5.16699 31.0003C5.16699 45.2603 16.7403 56.8337 31.0003 56.8337C45.2603 56.8337 56.8337 45.2603 56.8337 31.0003C56.8337 16.7403 45.2603 5.16699 31.0003 5.16699ZM42.987 22.7337C42.5995 26.8153 40.9203 36.7353 40.0678 41.3078C39.7062 43.2453 38.9828 43.8912 38.3112 43.9687C36.8128 44.0978 35.6762 42.987 34.2295 42.0312C31.9562 40.5328 30.6645 39.6028 28.4687 38.1562C25.9112 36.477 27.5645 35.547 29.037 34.0487C29.4245 33.6612 36.0378 27.642 36.167 27.0995C36.1849 27.0173 36.1825 26.932 36.16 26.851C36.1375 26.77 36.0956 26.6956 36.0378 26.6345C35.8828 26.5053 35.6762 26.557 35.4953 26.5828C35.2628 26.6345 31.6462 29.037 24.5937 33.7903C23.5603 34.4878 22.6303 34.8495 21.8037 34.8237C20.8737 34.7978 19.117 34.307 17.7995 33.8678C16.172 33.3512 14.9062 33.067 15.0095 32.1628C15.0612 31.6978 15.707 31.2328 16.9212 30.742C24.4645 27.4612 29.4762 25.2912 31.982 24.2578C39.1637 21.2612 40.6362 20.7445 41.6178 20.7445C41.8245 20.7445 42.3153 20.7962 42.6253 21.0545C42.8837 21.2612 42.9612 21.5453 42.987 21.752C42.9612 21.907 43.0128 22.372 42.987 22.7337Z" fill="white"/>
</svg>
