<svg width="54" height="54" viewBox="0 0 54 54" fill="none" xmlns="http://www.w3.org/2000/svg">
<path d="M27 3.375C13.9535 3.375 3.375 13.9535 3.375 27C3.375 40.0465 13.9535 50.625 27 50.625C40.0465 50.625 50.625 40.0465 50.625 27C50.625 13.9535 40.0465 3.375 27 3.375ZM38.3537 21.1834C38.3695 21.4313 38.3695 21.6896 38.3695 21.9428C38.3695 29.6842 32.4738 38.6016 21.7002 38.6016C18.3779 38.6016 15.2982 37.6365 12.7037 35.9754C13.1783 36.0281 13.6318 36.0492 14.117 36.0492C16.8592 36.0492 19.3799 35.1211 21.3891 33.5496C18.8156 33.4969 16.6535 31.8094 15.9152 29.4891C16.817 29.6209 17.6291 29.6209 18.5572 29.3836C17.2322 29.1144 16.0411 28.3947 15.1865 27.3469C14.3319 26.2991 13.8664 24.9877 13.8691 23.6355V23.5617C14.6443 23.9994 15.5566 24.2684 16.5111 24.3053C15.7087 23.7705 15.0507 23.046 14.5954 22.1961C14.14 21.3461 13.9014 20.3969 13.9008 19.4326C13.9008 18.341 14.1855 17.3443 14.6971 16.4795C16.1678 18.2901 18.0031 19.7709 20.0837 20.8257C22.1643 21.8805 24.4435 22.4857 26.7732 22.602C25.9453 18.6205 28.9195 15.3984 32.4949 15.3984C34.1824 15.3984 35.7012 16.1051 36.7717 17.2441C38.0953 16.9963 39.3609 16.5006 40.4895 15.8361C40.0518 17.1914 39.1342 18.3357 37.916 19.0582C39.0973 18.9316 40.2363 18.6047 41.291 18.1459C40.4947 19.3166 39.498 20.3555 38.3537 21.1834Z" fill="white"/>
</svg>
