<svg width="53" height="54" viewBox="0 0 53 54" fill="none" xmlns="http://www.w3.org/2000/svg">
<path d="M22.0837 33.6253L33.5449 27.0003L22.0837 20.3753V33.6253ZM47.612 16.3341C47.8991 17.372 48.0978 18.7632 48.2303 20.5299C48.3849 22.2966 48.4512 23.8203 48.4512 25.1453L48.5837 27.0003C48.5837 31.8366 48.2303 35.392 47.612 37.6666C47.0599 39.6541 45.7791 40.9349 43.7916 41.487C42.7537 41.7741 40.8545 41.9728 37.9395 42.1053C35.0687 42.2599 32.4407 42.3262 30.0116 42.3262L26.5003 42.4587C17.2474 42.4587 11.4837 42.1053 9.20908 41.487C7.22158 40.9349 5.94074 39.6541 5.38866 37.6666C5.10158 36.6287 4.90283 35.2374 4.77033 33.4707C4.61574 31.7041 4.54949 30.1803 4.54949 28.8553L4.41699 27.0003C4.41699 22.1641 4.77033 18.6087 5.38866 16.3341C5.94074 14.3466 7.22158 13.0657 9.20908 12.5137C10.247 12.2266 12.1462 12.0278 15.0612 11.8953C17.932 11.7407 20.5599 11.6745 22.9891 11.6745L26.5003 11.542C35.7532 11.542 41.517 11.8953 43.7916 12.5137C45.7791 13.0657 47.0599 14.3466 47.612 16.3341Z" fill="white"/>
</svg>
